<?xml version="1.0" encoding="UTF-8" standalone="no"?>
<!DOCTYPE svg PUBLIC "-//W3C//DTD SVG 1.1//EN"
 "http://www.w3.org/Graphics/SVG/1.1/DTD/svg11.dtd">
<!-- Generated by graphviz version 2.44.0 (20200518.1210)
 -->
<!-- Title: g Pages: 1 -->
<svg width="354pt" height="260pt"
 viewBox="0.00 0.00 354.19 260.00" xmlns="http://www.w3.org/2000/svg" xmlns:xlink="http://www.w3.org/1999/xlink">
<g id="graph0" class="graph" transform="scale(1 1) rotate(0) translate(4 256)">
<title>g</title>
<polygon fill="white" stroke="transparent" points="-4,4 -4,-256 350.19,-256 350.19,4 -4,4"/>
<g id="node1" class="node">
<title></title>
<ellipse fill="none" stroke="#666666" cx="3.5" cy="-126" rx="3.5" ry="3.5"/>
</g>
<!-- /Alice -->
<g id="node2" class="node">
<title>/Alice</title>
<polygon fill="none" stroke="#b3b3b3" points="344.84,-252 149.78,-252 149.78,-216 344.84,-216 344.84,-252"/>
<text text-anchor="middle" x="247.31" y="-231" font-family="Helvetica,sans-Serif" font-size="10.00">…&lt;title&gt;Alice&lt;/title&gt; &lt;/head&gt; &lt;body&gt; …</text>
</g>
<!-- &#45;&gt;/Alice -->
<g id="edge1" class="edge">
<title>&#45;&gt;/Alice</title>
<path fill="none" stroke="#999999" d="M7.03,-127.59C14.86,-132.46 39.5,-147.56 61,-158 103.52,-178.66 153.13,-198.81 190.32,-213.16"/>
<polygon fill="#999999" stroke="#999999" points="197.59,-215.95 189.37,-216.41 194.09,-214.61 190.59,-213.26 190.59,-213.26 190.59,-213.26 194.09,-214.61 191.8,-210.11 197.59,-215.95 197.59,-215.95"/>
<text text-anchor="middle" x="77.72" y="-175.2" font-family="Helvetica,sans-Serif" font-size="14.00">Alice</text>
</g>
<!-- /Bob -->
<g id="node3" class="node">
<title>/Bob</title>
<polygon fill="none" stroke="#b3b3b3" points="342.96,-144 151.66,-144 151.66,-108 342.96,-108 342.96,-144"/>
<text text-anchor="middle" x="247.31" y="-123" font-family="Helvetica,sans-Serif" font-size="10.00">…&lt;title&gt;Bob&lt;/title&gt; &lt;/head&gt; &lt;body&gt; …</text>
</g>
<!-- &#45;&gt;/Bob -->
<g id="edge2" class="edge">
<title>&#45;&gt;/Bob</title>
<path fill="none" stroke="#999999" d="M7.22,-126C21.05,-126 85.27,-126 143.68,-126"/>
<polygon fill="#999999" stroke="#999999" points="151.5,-126 144,-129.38 147.75,-126 144,-126 144,-126 144,-126 147.75,-126 144,-122.63 151.5,-126 151.5,-126"/>
<text text-anchor="middle" x="77.72" y="-130.2" font-family="Helvetica,sans-Serif" font-size="14.00">Bob</text>
</g>
<!-- /Carol -->
<g id="node4" class="node">
<title>/Carol</title>
<polygon fill="none" stroke="#b3b3b3" points="346.06,-36 148.56,-36 148.56,0 346.06,0 346.06,-36"/>
<text text-anchor="middle" x="247.31" y="-15" font-family="Helvetica,sans-Serif" font-size="10.00">…&lt;title&gt;Carol&lt;/title&gt; &lt;/head&gt; &lt;body&gt; …</text>
</g>
<!-- &#45;&gt;/Carol -->
<g id="edge3" class="edge">
<title>&#45;&gt;/Carol</title>
<path fill="none" stroke="#999999" d="M7,-124.24C14.75,-118.82 39.16,-102.13 61,-91.2 101.6,-70.88 149.28,-52.15 186.11,-38.73"/>
<polygon fill="#999999" stroke="#999999" points="193.32,-36.12 187.42,-41.84 189.8,-37.39 186.27,-38.67 186.27,-38.67 186.27,-38.67 189.8,-37.39 185.12,-35.5 193.32,-36.12 193.32,-36.12"/>
<text text-anchor="middle" x="77.72" y="-96.2" font-family="Helvetica,sans-Serif" font-size="14.00">Carol</text>
</g>
</g>
</svg>
