<?xml version="1.0" encoding="UTF-8" standalone="no"?>
<!DOCTYPE svg PUBLIC "-//W3C//DTD SVG 1.1//EN"
 "http://www.w3.org/Graphics/SVG/1.1/DTD/svg11.dtd">
<!-- Generated by graphviz version 2.44.0 (20200518.1210)
 -->
<!-- Title: g Pages: 1 -->
<svg width="137pt" height="530pt"
 viewBox="0.00 0.00 137.03 530.00" xmlns="http://www.w3.org/2000/svg" xmlns:xlink="http://www.w3.org/1999/xlink">
<g id="graph0" class="graph" transform="scale(1 1) rotate(0) translate(4 526)">
<title>g</title>
<polygon fill="white" stroke="transparent" points="-4,4 -4,-526 133.03,-526 133.03,4 -4,4"/>
<g id="node1" class="node">
<title></title>
<ellipse fill="none" stroke="#666666" cx="3.5" cy="-261" rx="3.5" ry="3.5"/>
</g>
<!-- /0 -->
<g id="node2" class="node">
<title>/0</title>
<polygon fill="none" stroke="#b3b3b3" points="116.91,-522 62.91,-522 62.91,-486 116.91,-486 116.91,-522"/>
<text text-anchor="middle" x="89.91" y="-499.8" font-family="Helvetica,sans-Serif" font-size="14.00">Alice</text>
</g>
<!-- &#45;&gt;/0 -->
<g id="edge1" class="edge">
<title>&#45;&gt;/0</title>
<path fill="none" stroke="#999999" d="M4.64,-264.38C5.42,-280.9 9.62,-354.82 25,-413 32.84,-442.65 31.77,-452.94 50.78,-477 52.55,-479.23 54.54,-481.36 56.67,-483.37"/>
<polygon fill="#999999" stroke="#999999" points="62.56,-488.4 54.67,-486.09 59.71,-485.96 56.86,-483.53 56.86,-483.53 56.86,-483.53 59.71,-485.96 59.05,-480.96 62.56,-488.4 62.56,-488.4"/>
<text text-anchor="middle" x="28.89" y="-447.2" font-family="Helvetica,sans-Serif" font-size="14.00">0</text>
</g>
<!-- /1 -->
<g id="node3" class="node">
<title>/1</title>
<polygon fill="none" stroke="#b3b3b3" points="116.91,-468 62.91,-468 62.91,-432 116.91,-432 116.91,-468"/>
<text text-anchor="middle" x="89.91" y="-445.8" font-family="Helvetica,sans-Serif" font-size="14.00">Imani</text>
</g>
<!-- &#45;&gt;/1 -->
<g id="edge2" class="edge">
<title>&#45;&gt;/1</title>
<path fill="none" stroke="#999999" d="M4.55,-264.52C4.99,-283.08 9.29,-370.79 50.78,-423 52.55,-425.23 54.55,-427.35 56.69,-429.36"/>
<polygon fill="#999999" stroke="#999999" points="62.58,-434.38 54.68,-432.08 59.73,-431.95 56.87,-429.52 56.87,-429.52 56.87,-429.52 59.73,-431.95 59.07,-426.95 62.58,-434.38 62.58,-434.38"/>
<text text-anchor="middle" x="28.89" y="-396.2" font-family="Helvetica,sans-Serif" font-size="14.00">1</text>
</g>
<!-- /2 -->
<g id="node4" class="node">
<title>/2</title>
<polygon fill="none" stroke="#b3b3b3" points="116.91,-414 62.91,-414 62.91,-378 116.91,-378 116.91,-414"/>
<text text-anchor="middle" x="89.91" y="-391.8" font-family="Helvetica,sans-Serif" font-size="14.00">Ines</text>
</g>
<!-- &#45;&gt;/2 -->
<g id="edge3" class="edge">
<title>&#45;&gt;/2</title>
<path fill="none" stroke="#999999" d="M5.16,-264.4C8.09,-278.7 21.08,-334.81 50.78,-369 52.65,-371.15 54.72,-373.21 56.9,-375.18"/>
<polygon fill="#999999" stroke="#999999" points="62.88,-380.14 54.95,-377.95 59.99,-377.74 57.11,-375.35 57.11,-375.35 57.11,-375.35 59.99,-377.74 59.26,-372.75 62.88,-380.14 62.88,-380.14"/>
<text text-anchor="middle" x="28.89" y="-343.2" font-family="Helvetica,sans-Serif" font-size="14.00">2</text>
</g>
<!-- /3 -->
<g id="node5" class="node">
<title>/3</title>
<polygon fill="none" stroke="#b3b3b3" points="116.91,-360 62.91,-360 62.91,-324 116.91,-324 116.91,-360"/>
<text text-anchor="middle" x="89.91" y="-337.8" font-family="Helvetica,sans-Serif" font-size="14.00">Jenny</text>
</g>
<!-- &#45;&gt;/3 -->
<g id="edge4" class="edge">
<title>&#45;&gt;/3</title>
<path fill="none" stroke="#999999" d="M6.06,-263.52C9.3,-268.7 17.14,-280.82 25,-290 35.38,-302.12 38.5,-304.8 50.78,-315 52.65,-316.55 54.61,-318.12 56.61,-319.66"/>
<polygon fill="#999999" stroke="#999999" points="62.67,-324.22 54.64,-322.41 59.67,-321.97 56.67,-319.71 56.67,-319.71 56.67,-319.71 59.67,-321.97 58.7,-317.01 62.67,-324.22 62.67,-324.22"/>
<text text-anchor="middle" x="28.89" y="-302.2" font-family="Helvetica,sans-Serif" font-size="14.00">3</text>
</g>
<!-- /4 -->
<g id="node6" class="node">
<title>/4</title>
<polygon fill="none" stroke="#b3b3b3" points="116.91,-306 62.91,-306 62.91,-270 116.91,-270 116.91,-306"/>
<text text-anchor="middle" x="89.91" y="-283.8" font-family="Helvetica,sans-Serif" font-size="14.00">Luis</text>
</g>
<!-- &#45;&gt;/4 -->
<g id="edge5" class="edge">
<title>&#45;&gt;/4</title>
<path fill="none" stroke="#999999" d="M6.94,-261.78C14.13,-264.08 35.97,-271.07 55.3,-277.25"/>
<polygon fill="#999999" stroke="#999999" points="62.55,-279.57 54.38,-280.5 58.98,-278.43 55.41,-277.29 55.41,-277.29 55.41,-277.29 58.98,-278.43 56.44,-274.07 62.55,-279.57 62.55,-279.57"/>
<text text-anchor="middle" x="28.89" y="-273.2" font-family="Helvetica,sans-Serif" font-size="14.00">4</text>
</g>
<!-- /5 -->
<g id="node7" class="node">
<title>/5</title>
<polygon fill="none" stroke="#b3b3b3" points="116.91,-252 62.91,-252 62.91,-216 116.91,-216 116.91,-252"/>
<text text-anchor="middle" x="89.91" y="-229.8" font-family="Helvetica,sans-Serif" font-size="14.00">Maria</text>
</g>
<!-- &#45;&gt;/5 -->
<g id="edge6" class="edge">
<title>&#45;&gt;/5</title>
<path fill="none" stroke="#999999" d="M6.73,-259.07C10.32,-256.05 17.72,-250.26 25,-247.2 34.49,-243.21 45.29,-240.39 55.28,-238.41"/>
<polygon fill="#999999" stroke="#999999" points="62.72,-237.06 55.95,-241.72 59.03,-237.73 55.34,-238.4 55.34,-238.4 55.34,-238.4 59.03,-237.73 54.74,-235.08 62.72,-237.06 62.72,-237.06"/>
<text text-anchor="middle" x="28.89" y="-251.2" font-family="Helvetica,sans-Serif" font-size="14.00">5</text>
</g>
<!-- /6 -->
<g id="node8" class="node">
<title>/6</title>
<polygon fill="none" stroke="#b3b3b3" points="121.86,-198 57.95,-198 57.95,-162 121.86,-162 121.86,-198"/>
<text text-anchor="middle" x="89.91" y="-175.8" font-family="Helvetica,sans-Serif" font-size="14.00">Rakesh</text>
</g>
<!-- &#45;&gt;/6 -->
<g id="edge7" class="edge">
<title>&#45;&gt;/6</title>
<path fill="none" stroke="#999999" d="M5.57,-257.95C8.1,-251.11 14.97,-234.26 25,-223.2 32.6,-214.82 42.15,-207.26 51.53,-200.9"/>
<polygon fill="#999999" stroke="#999999" points="57.97,-196.69 53.54,-203.62 54.83,-198.74 51.69,-200.8 51.69,-200.8 51.69,-200.8 54.83,-198.74 49.84,-197.97 57.97,-196.69 57.97,-196.69"/>
<text text-anchor="middle" x="28.89" y="-227.2" font-family="Helvetica,sans-Serif" font-size="14.00">6</text>
</g>
<!-- /7 -->
<g id="node9" class="node">
<title>/7</title>
<polygon fill="none" stroke="#b3b3b3" points="129.15,-144 50.66,-144 50.66,-108 129.15,-108 129.15,-144"/>
<text text-anchor="middle" x="89.91" y="-121.8" font-family="Helvetica,sans-Serif" font-size="14.00">Sebastian</text>
</g>
<!-- &#45;&gt;/7 -->
<g id="edge8" class="edge">
<title>&#45;&gt;/7</title>
<path fill="none" stroke="#999999" d="M5.09,-257.53C7.72,-242.96 19.69,-185.92 50.78,-153 51.96,-151.75 53.2,-150.53 54.49,-149.33"/>
<polygon fill="#999999" stroke="#999999" points="60.38,-144.27 56.89,-151.72 57.54,-146.71 54.69,-149.16 54.69,-149.16 54.69,-149.16 57.54,-146.71 52.49,-146.6 60.38,-144.27 60.38,-144.27"/>
<text text-anchor="middle" x="28.89" y="-194.2" font-family="Helvetica,sans-Serif" font-size="14.00">7</text>
</g>
<!-- /8 -->
<g id="node10" class="node">
<title>/8</title>
<polygon fill="none" stroke="#b3b3b3" points="122.14,-90 57.67,-90 57.67,-54 122.14,-54 122.14,-90"/>
<text text-anchor="middle" x="89.91" y="-67.8" font-family="Helvetica,sans-Serif" font-size="14.00">Seo&#45;jun</text>
</g>
<!-- &#45;&gt;/8 -->
<g id="edge9" class="edge">
<title>&#45;&gt;/8</title>
<path fill="none" stroke="#999999" d="M4.52,-257.46C4.83,-238.79 8.55,-150.61 50.78,-99 51.75,-97.82 52.77,-96.67 53.85,-95.55"/>
<polygon fill="#999999" stroke="#999999" points="59.57,-90.22 56.39,-97.8 56.82,-92.77 54.08,-95.33 54.08,-95.33 54.08,-95.33 56.82,-92.77 51.78,-92.87 59.57,-90.22 59.57,-90.22"/>
<text text-anchor="middle" x="28.89" y="-146.2" font-family="Helvetica,sans-Serif" font-size="14.00">8</text>
</g>
<!-- /9 -->
<g id="node11" class="node">
<title>/9</title>
<polygon fill="none" stroke="#b3b3b3" points="119.18,-36 60.63,-36 60.63,0 119.18,0 119.18,-36"/>
<text text-anchor="middle" x="89.91" y="-13.8" font-family="Helvetica,sans-Serif" font-size="14.00">Tomas</text>
</g>
<!-- &#45;&gt;/9 -->
<g id="edge10" class="edge">
<title>&#45;&gt;/9</title>
<path fill="none" stroke="#999999" d="M4.64,-257.6C5.37,-240.99 9.43,-166.65 25,-108.2 32.81,-78.89 31.92,-68.76 50.78,-45 51.97,-43.5 53.27,-42.05 54.64,-40.64"/>
<polygon fill="#999999" stroke="#999999" points="60.24,-35.5 57,-43.06 57.48,-38.03 54.72,-40.57 54.72,-40.57 54.72,-40.57 57.48,-38.03 52.44,-38.09 60.24,-35.5 60.24,-35.5"/>
<text text-anchor="middle" x="28.89" y="-112.2" font-family="Helvetica,sans-Serif" font-size="14.00">9</text>
</g>
</g>
</svg>
