<?xml version="1.0" encoding="UTF-8" standalone="no"?>
<!DOCTYPE svg PUBLIC "-//W3C//DTD SVG 1.1//EN"
 "http://www.w3.org/Graphics/SVG/1.1/DTD/svg11.dtd">
<!-- Generated by graphviz version 2.44.1 (20200629.0846)
 -->
<!-- Title: g Pages: 1 -->
<svg width="749pt" height="265pt"
 viewBox="0.00 0.00 749.00 265.00" xmlns="http://www.w3.org/2000/svg" xmlns:xlink="http://www.w3.org/1999/xlink">
<g id="graph0" class="graph" transform="scale(1 1) rotate(0) translate(4 261)">
<title>g</title>
<polygon fill="white" stroke="transparent" points="-4,4 -4,-261 745,-261 745,4 -4,4"/>
<!-- headshots -->
<g id="node1" class="node">
<title>headshots</title>
<g id="a_node1"><a xlink:href="../headshots" xlink:title="headshots">
<polygon fill="white" stroke="#b3b3b3" points="62,-144 0,-144 0,-108 62,-108 62,-144"/>
<text text-anchor="middle" x="31" y="-123.5" font-family="Helvetica,sans-Serif" font-size="10.00">headshots</text>
</a>
</g>
</g>
<!-- person.ori -->
<g id="node4" class="node">
<title>person.ori</title>
<g id="a_node4"><a xlink:href="../person.ori" xlink:title="person.ori">
<polygon fill="white" stroke="#b3b3b3" points="238,-144 179,-144 179,-108 238,-108 238,-144"/>
<text text-anchor="middle" x="208.5" y="-123.5" font-family="Helvetica,sans-Serif" font-size="10.00">person.ori</text>
</a>
</g>
</g>
<!-- headshots&#45;&gt;person.ori -->
<g id="edge1" class="edge">
<title>headshots&#45;&gt;person.ori</title>
<path fill="none" stroke="#999999" d="M62.17,-126C92.35,-126 138.79,-126 171.02,-126"/>
<polygon fill="#999999" stroke="#999999" points="178.89,-126 171.39,-129.38 175.14,-126 171.39,-126 171.39,-126 171.39,-126 175.14,-126 171.39,-122.63 178.89,-126 178.89,-126"/>
</g>
<!-- thumbnails -->
<g id="node9" class="node">
<title>thumbnails</title>
<g id="a_node9"><a xlink:href="../thumbnails" xlink:title="thumbnails">
<polygon fill="white" stroke="#b3b3b3" points="240.5,-257 176.5,-257 176.5,-221 240.5,-221 240.5,-257"/>
<text text-anchor="middle" x="208.5" y="-236.5" font-family="Helvetica,sans-Serif" font-size="10.00">thumbnails</text>
</a>
</g>
</g>
<!-- headshots&#45;&gt;thumbnails -->
<g id="edge2" class="edge">
<title>headshots&#45;&gt;thumbnails</title>
<path fill="none" stroke="#999999" d="M60.2,-144.16C90.9,-163.92 140.02,-195.55 173,-216.79"/>
<polygon fill="#999999" stroke="#999999" points="179.37,-220.89 171.24,-219.67 176.22,-218.86 173.07,-216.83 173.07,-216.83 173.07,-216.83 176.22,-218.86 174.89,-213.99 179.37,-220.89 179.37,-220.89"/>
</g>
<!-- index.html -->
<g id="node2" class="node">
<title>index.html</title>
<g id="a_node2"><a xlink:href="../index.html" xlink:title="index.html">
<polygon fill="white" stroke="#b3b3b3" points="741,-135 679,-135 679,-99 741,-99 741,-135"/>
<text text-anchor="middle" x="710" y="-114.5" font-family="Helvetica,sans-Serif" font-size="10.00">index.html</text>
</a>
</g>
</g>
<!-- index.ori -->
<g id="node3" class="node">
<title>index.ori</title>
<g id="a_node3"><a xlink:href="../index.ori" xlink:title="index.ori">
<polygon fill="white" stroke="#b3b3b3" points="571,-135 517,-135 517,-99 571,-99 571,-135"/>
<text text-anchor="middle" x="544" y="-114.5" font-family="Helvetica,sans-Serif" font-size="10.00">index.ori</text>
</a>
</g>
</g>
<!-- index.ori&#45;&gt;index.html -->
<g id="edge3" class="edge">
<title>index.ori&#45;&gt;index.html</title>
<path fill="none" stroke="#999999" d="M571.35,-117C598.39,-117 640.73,-117 671.31,-117"/>
<polygon fill="#999999" stroke="#999999" points="678.82,-117 671.32,-120.38 675.07,-117 671.32,-117 671.32,-117 671.32,-117 675.07,-117 671.32,-113.63 678.82,-117 678.82,-117"/>
</g>
<!-- team -->
<g id="node5" class="node">
<title>team</title>
<g id="a_node5"><a xlink:href="../team" xlink:title="team">
<polygon fill="white" stroke="#b3b3b3" points="409,-135 355,-135 355,-99 409,-99 409,-135"/>
<text text-anchor="middle" x="382" y="-114.5" font-family="Helvetica,sans-Serif" font-size="10.00">team</text>
</a>
</g>
</g>
<!-- person.ori&#45;&gt;team -->
<g id="edge4" class="edge">
<title>person.ori&#45;&gt;team</title>
<path fill="none" stroke="#999999" d="M238.21,-124.49C268.18,-122.92 315.18,-120.45 346.99,-118.78"/>
<polygon fill="#999999" stroke="#999999" points="354.74,-118.38 347.42,-122.14 350.99,-118.57 347.25,-118.77 347.25,-118.77 347.25,-118.77 350.99,-118.57 347.07,-115.4 354.74,-118.38 354.74,-118.38"/>
</g>
<!-- team&#45;&gt;index.ori -->
<g id="edge5" class="edge">
<title>team&#45;&gt;index.ori</title>
<path fill="none" stroke="#999999" d="M409.06,-117C436.38,-117 479.39,-117 509.27,-117"/>
<polygon fill="#999999" stroke="#999999" points="516.95,-117 509.45,-120.38 513.2,-117 509.45,-117 509.45,-117 509.45,-117 513.2,-117 509.45,-113.63 516.95,-117 516.95,-117"/>
</g>
<!-- team.yaml -->
<g id="node6" class="node">
<title>team.yaml</title>
<g id="a_node6"><a xlink:href="../team.yaml" xlink:title="team.yaml">
<polygon fill="white" stroke="#b3b3b3" points="62,-36 0,-36 0,0 62,0 62,-36"/>
<text text-anchor="middle" x="31" y="-15.5" font-family="Helvetica,sans-Serif" font-size="10.00">team.yaml</text>
</a>
</g>
</g>
<!-- teamByName -->
<g id="node7" class="node">
<title>teamByName</title>
<g id="a_node7"><a xlink:href="../teamByName" xlink:title="teamByName">
<polygon fill="white" stroke="#b3b3b3" points="247,-36 170,-36 170,0 247,0 247,-36"/>
<text text-anchor="middle" x="208.5" y="-15.5" font-family="Helvetica,sans-Serif" font-size="10.00">teamByName</text>
</a>
</g>
</g>
<!-- team.yaml&#45;&gt;teamByName -->
<g id="edge6" class="edge">
<title>team.yaml&#45;&gt;teamByName</title>
<path fill="none" stroke="#999999" d="M62.17,-18C89.64,-18 130.58,-18 162.01,-18"/>
<polygon fill="#999999" stroke="#999999" points="169.78,-18 162.28,-21.38 166.03,-18 162.28,-18 162.28,-18 162.28,-18 166.03,-18 162.28,-14.63 169.78,-18 169.78,-18"/>
</g>
<!-- teamByName&#45;&gt;index.ori -->
<g id="edge7" class="edge">
<title>teamByName&#45;&gt;index.ori</title>
<path fill="none" stroke="#999999" d="M247.11,-24.61C287.58,-32.15 353.58,-45.71 409,-63 444.17,-73.97 483.09,-90.13 509.88,-101.91"/>
<polygon fill="#999999" stroke="#999999" points="516.76,-104.96 508.54,-105.01 513.33,-103.44 509.91,-101.92 509.91,-101.92 509.91,-101.92 513.33,-103.44 511.27,-98.83 516.76,-104.96 516.76,-104.96"/>
</g>
<!-- teamByName&#45;&gt;team -->
<g id="edge8" class="edge">
<title>teamByName&#45;&gt;team</title>
<path fill="none" stroke="#999999" d="M240.96,-36.16C271.34,-53.7 317.18,-80.16 348.06,-97.98"/>
<polygon fill="#999999" stroke="#999999" points="354.8,-101.87 346.61,-101.05 351.55,-100 348.3,-98.12 348.3,-98.12 348.3,-98.12 351.55,-100 349.99,-95.2 354.8,-101.87 354.8,-101.87"/>
</g>
<!-- thumbnail -->
<g id="node8" class="node">
<title>thumbnail</title>
<g id="a_node8"><a xlink:href="../thumbnail" xlink:title="thumbnail">
<polygon fill="white" stroke="#b3b3b3" points="60.5,-257 1.5,-257 1.5,-221 60.5,-221 60.5,-257"/>
<text text-anchor="middle" x="31" y="-236.5" font-family="Helvetica,sans-Serif" font-size="10.00">thumbnail</text>
</a>
</g>
</g>
<!-- thumbnail&#45;&gt;thumbnails -->
<g id="edge9" class="edge">
<title>thumbnail&#45;&gt;thumbnails</title>
<path fill="none" stroke="#999999" d="M60.59,-239C89.99,-239 135.98,-239 168.67,-239"/>
<polygon fill="#999999" stroke="#999999" points="176.26,-239 168.76,-242.38 172.51,-239 168.76,-239 168.76,-239 168.76,-239 172.51,-239 168.76,-235.63 176.26,-239 176.26,-239"/>
</g>
<!-- thumbnails&#45;&gt;index.ori -->
<g id="edge10" class="edge">
<title>thumbnails&#45;&gt;index.ori</title>
<path fill="none" stroke="#999999" d="M240.79,-228.92C280.23,-216.08 350,-192.92 409,-171 443.75,-158.09 483.04,-142.09 510.04,-130.87"/>
<polygon fill="#999999" stroke="#999999" points="516.97,-127.98 511.35,-133.98 513.51,-129.42 510.05,-130.86 510.05,-130.86 510.05,-130.86 513.51,-129.42 508.75,-127.75 516.97,-127.98 516.97,-127.98"/>
</g>
</g>
</svg>
