<?xml version="1.0" encoding="UTF-8" standalone="no"?>
<!DOCTYPE svg PUBLIC "-//W3C//DTD SVG 1.1//EN"
 "http://www.w3.org/Graphics/SVG/1.1/DTD/svg11.dtd">
<!-- Generated by graphviz version 2.44.1 (20200629.0846)
 -->
<!-- Title: g Pages: 1 -->
<svg width="587pt" height="269pt"
 viewBox="0.00 0.00 587.00 269.00" xmlns="http://www.w3.org/2000/svg" xmlns:xlink="http://www.w3.org/1999/xlink">
<g id="graph0" class="graph" transform="scale(1 1) rotate(0) translate(4 265)">
<title>g</title>
<polygon fill="white" stroke="transparent" points="-4,4 -4,-265 583,-265 583,4 -4,4"/>
<!-- headshots -->
<g id="node1" class="node">
<title>headshots</title>
<g id="a_node1"><a xlink:href="../headshots" xlink:title="headshots">
<polygon fill="white" stroke="#b3b3b3" points="62,-144 0,-144 0,-108 62,-108 62,-144"/>
<text text-anchor="middle" x="31" y="-123.5" font-family="Helvetica,sans-Serif" font-size="10.00">headshots</text>
</a>
</g>
</g>
<!-- person.ori -->
<g id="node4" class="node">
<title>person.ori</title>
<g id="a_node4"><a xlink:href="../person.ori" xlink:title="person.ori">
<polygon fill="white" stroke="#b3b3b3" points="238,-144 179,-144 179,-108 238,-108 238,-144"/>
<text text-anchor="middle" x="208.5" y="-123.5" font-family="Helvetica,sans-Serif" font-size="10.00">person.ori</text>
</a>
</g>
</g>
<!-- headshots&#45;&gt;person.ori -->
<g id="edge1" class="edge">
<title>headshots&#45;&gt;person.ori</title>
<path fill="none" stroke="#999999" d="M62.17,-126C92.35,-126 138.79,-126 171.02,-126"/>
<polygon fill="#999999" stroke="#999999" points="178.89,-126 171.39,-129.38 175.14,-126 171.39,-126 171.39,-126 171.39,-126 175.14,-126 171.39,-122.63 178.89,-126 178.89,-126"/>
</g>
<!-- thumbnails -->
<g id="node9" class="node">
<title>thumbnails</title>
<g id="a_node9"><a xlink:href="../thumbnails" xlink:title="thumbnails">
<polygon fill="white" stroke="#b3b3b3" points="240.5,-36 176.5,-36 176.5,0 240.5,0 240.5,-36"/>
<text text-anchor="middle" x="208.5" y="-15.5" font-family="Helvetica,sans-Serif" font-size="10.00">thumbnails</text>
</a>
</g>
</g>
<!-- headshots&#45;&gt;thumbnails -->
<g id="edge2" class="edge">
<title>headshots&#45;&gt;thumbnails</title>
<path fill="none" stroke="#999999" d="M61.37,-107.92C91.62,-89.31 138.8,-60.28 171.32,-40.26"/>
<polygon fill="#999999" stroke="#999999" points="178.03,-36.14 173.41,-42.94 174.84,-38.1 171.64,-40.07 171.64,-40.07 171.64,-40.07 174.84,-38.1 169.87,-37.19 178.03,-36.14 178.03,-36.14"/>
</g>
<!-- index.html -->
<g id="node2" class="node">
<title>index.html</title>
<g id="a_node2"><a xlink:href="../index.html" xlink:title="index.html">
<polygon fill="white" stroke="#b3b3b3" points="579,-153 517,-153 517,-117 579,-117 579,-153"/>
<text text-anchor="middle" x="548" y="-132.5" font-family="Helvetica,sans-Serif" font-size="10.00">index.html</text>
</a>
</g>
</g>
<!-- index.ori -->
<g id="node3" class="node">
<title>index.ori</title>
<g id="a_node3"><a xlink:href="../index.ori" xlink:title="index.ori">
<polygon fill="white" stroke="#b3b3b3" points="409,-36 355,-36 355,0 409,0 409,-36"/>
<text text-anchor="middle" x="382" y="-15.5" font-family="Helvetica,sans-Serif" font-size="10.00">index.ori</text>
</a>
</g>
</g>
<!-- index.ori&#45;&gt;index.html -->
<g id="edge3" class="edge">
<title>index.ori&#45;&gt;index.html</title>
<path fill="none" stroke="#999999" d="M408.27,-36.02C437.04,-56.55 484.09,-90.12 515.3,-112.38"/>
<polygon fill="#999999" stroke="#999999" points="521.71,-116.95 513.64,-115.35 518.65,-114.78 515.6,-112.6 515.6,-112.6 515.6,-112.6 518.65,-114.78 517.56,-109.85 521.71,-116.95 521.71,-116.95"/>
</g>
<!-- team -->
<g id="node5" class="node">
<title>team</title>
<g id="a_node5"><a xlink:href="../team" xlink:title="team">
<polygon fill="white" stroke="#b3b3b3" points="409,-144 355,-144 355,-108 409,-108 409,-144"/>
<text text-anchor="middle" x="382" y="-123.5" font-family="Helvetica,sans-Serif" font-size="10.00">team</text>
</a>
</g>
</g>
<!-- person.ori&#45;&gt;team -->
<g id="edge4" class="edge">
<title>person.ori&#45;&gt;team</title>
<path fill="none" stroke="#999999" d="M238.21,-126C268.18,-126 315.18,-126 346.99,-126"/>
<polygon fill="#999999" stroke="#999999" points="354.74,-126 347.24,-129.38 350.99,-126 347.24,-126 347.24,-126 347.24,-126 350.99,-126 347.24,-122.63 354.74,-126 354.74,-126"/>
</g>
<!-- team.yaml -->
<g id="node6" class="node">
<title>team.yaml</title>
<g id="a_node6"><a xlink:href="../team.yaml" xlink:title="team.yaml">
<polygon fill="white" stroke="#b3b3b3" points="62,-261 0,-261 0,-225 62,-225 62,-261"/>
<text text-anchor="middle" x="31" y="-240.5" font-family="Helvetica,sans-Serif" font-size="10.00">team.yaml</text>
</a>
</g>
</g>
<!-- teamByName -->
<g id="node7" class="node">
<title>teamByName</title>
<g id="a_node7"><a xlink:href="../teamByName" xlink:title="teamByName">
<polygon fill="white" stroke="#b3b3b3" points="247,-261 170,-261 170,-225 247,-225 247,-261"/>
<text text-anchor="middle" x="208.5" y="-240.5" font-family="Helvetica,sans-Serif" font-size="10.00">teamByName</text>
</a>
</g>
</g>
<!-- team.yaml&#45;&gt;teamByName -->
<g id="edge5" class="edge">
<title>team.yaml&#45;&gt;teamByName</title>
<path fill="none" stroke="#999999" d="M62.17,-243C89.64,-243 130.58,-243 162.01,-243"/>
<polygon fill="#999999" stroke="#999999" points="169.78,-243 162.28,-246.38 166.03,-243 162.28,-243 162.28,-243 162.28,-243 166.03,-243 162.28,-239.63 169.78,-243 169.78,-243"/>
</g>
<!-- teamByName&#45;&gt;index.html -->
<g id="edge6" class="edge">
<title>teamByName&#45;&gt;index.html</title>
<path fill="none" stroke="#999999" d="M247.04,-231.26C287.16,-218.69 352.63,-198.09 409,-180 443.14,-169.04 481.96,-156.36 509.71,-147.26"/>
<polygon fill="#999999" stroke="#999999" points="516.88,-144.91 510.8,-150.46 513.31,-146.08 509.75,-147.25 509.75,-147.25 509.75,-147.25 513.31,-146.08 508.7,-144.04 516.88,-144.91 516.88,-144.91"/>
</g>
<!-- teamByName&#45;&gt;team -->
<g id="edge7" class="edge">
<title>teamByName&#45;&gt;team</title>
<path fill="none" stroke="#999999" d="M235.92,-224.98C266.22,-204.3 315.91,-170.4 348.54,-148.14"/>
<polygon fill="#999999" stroke="#999999" points="354.83,-143.85 350.54,-150.87 351.73,-145.97 348.63,-148.08 348.63,-148.08 348.63,-148.08 351.73,-145.97 346.73,-145.29 354.83,-143.85 354.83,-143.85"/>
</g>
<!-- thumbnail -->
<g id="node8" class="node">
<title>thumbnail</title>
<g id="a_node8"><a xlink:href="../thumbnail" xlink:title="thumbnail">
<polygon fill="white" stroke="#b3b3b3" points="60.5,-36 1.5,-36 1.5,0 60.5,0 60.5,-36"/>
<text text-anchor="middle" x="31" y="-15.5" font-family="Helvetica,sans-Serif" font-size="10.00">thumbnail</text>
</a>
</g>
</g>
<!-- thumbnail&#45;&gt;thumbnails -->
<g id="edge8" class="edge">
<title>thumbnail&#45;&gt;thumbnails</title>
<path fill="none" stroke="#999999" d="M60.59,-18C89.99,-18 135.98,-18 168.67,-18"/>
<polygon fill="#999999" stroke="#999999" points="176.26,-18 168.76,-21.38 172.51,-18 168.76,-18 168.76,-18 168.76,-18 172.51,-18 168.76,-14.63 176.26,-18 176.26,-18"/>
</g>
<!-- thumbnails&#45;&gt;index.ori -->
<g id="edge9" class="edge">
<title>thumbnails&#45;&gt;index.ori</title>
<path fill="none" stroke="#999999" d="M240.56,-18C270.72,-18 316.39,-18 347.39,-18"/>
<polygon fill="#999999" stroke="#999999" points="354.94,-18 347.44,-21.38 351.19,-18 347.44,-18 347.44,-18 347.44,-18 351.19,-18 347.44,-14.63 354.94,-18 354.94,-18"/>
</g>
</g>
</svg>
