<?xml version="1.0" encoding="UTF-8" standalone="no"?>
<!DOCTYPE svg PUBLIC "-//W3C//DTD SVG 1.1//EN"
 "http://www.w3.org/Graphics/SVG/1.1/DTD/svg11.dtd">
<!-- Generated by graphviz version 2.44.1 (20200629.0846)
 -->
<!-- Title: g Pages: 1 -->
<svg width="587pt" height="260pt"
 viewBox="0.00 0.00 587.00 260.00" xmlns="http://www.w3.org/2000/svg" xmlns:xlink="http://www.w3.org/1999/xlink">
<g id="graph0" class="graph" transform="scale(1 1) rotate(0) translate(4 256)">
<title>g</title>
<polygon fill="white" stroke="transparent" points="-4,4 -4,-256 583,-256 583,4 -4,4"/>
<!-- headshots -->
<g id="node1" class="node">
<title>headshots</title>
<g id="a_node1"><a xlink:href="../headshots" xlink:title="headshots">
<polygon fill="white" stroke="#b3b3b3" points="62,-252 0,-252 0,-216 62,-216 62,-252"/>
<text text-anchor="middle" x="31" y="-231.5" font-family="Helvetica,sans-Serif" font-size="10.00">headshots</text>
</a>
</g>
</g>
<!-- person.ori -->
<g id="node4" class="node">
<title>person.ori</title>
<g id="a_node4"><a xlink:href="../person.ori" xlink:title="person.ori">
<polygon fill="white" stroke="#b3b3b3" points="238,-252 179,-252 179,-216 238,-216 238,-252"/>
<text text-anchor="middle" x="208.5" y="-231.5" font-family="Helvetica,sans-Serif" font-size="10.00">person.ori</text>
</a>
</g>
</g>
<!-- headshots&#45;&gt;person.ori -->
<g id="edge1" class="edge">
<title>headshots&#45;&gt;person.ori</title>
<path fill="none" stroke="#999999" d="M62.17,-234C92.35,-234 138.79,-234 171.02,-234"/>
<polygon fill="#999999" stroke="#999999" points="178.89,-234 171.39,-237.38 175.14,-234 171.39,-234 171.39,-234 171.39,-234 175.14,-234 171.39,-230.63 178.89,-234 178.89,-234"/>
</g>
<!-- thumbnails -->
<g id="node9" class="node">
<title>thumbnails</title>
<g id="a_node9"><a xlink:href="../thumbnails" xlink:title="thumbnails">
<polygon fill="white" stroke="#b3b3b3" points="240.5,-36 176.5,-36 176.5,0 240.5,0 240.5,-36"/>
<text text-anchor="middle" x="208.5" y="-15.5" font-family="Helvetica,sans-Serif" font-size="10.00">thumbnails</text>
</a>
</g>
</g>
<!-- headshots&#45;&gt;thumbnails -->
<g id="edge2" class="edge">
<title>headshots&#45;&gt;thumbnails</title>
<path fill="none" stroke="#999999" d="M46.66,-215.96C78.21,-177.12 152.56,-85.62 188.02,-41.98"/>
<polygon fill="#999999" stroke="#999999" points="192.76,-36.15 190.65,-44.09 190.39,-39.06 188.03,-41.97 188.03,-41.97 188.03,-41.97 190.39,-39.06 185.41,-39.84 192.76,-36.15 192.76,-36.15"/>
</g>
<!-- index.html -->
<g id="node2" class="node">
<title>index.html</title>
<g id="a_node2"><a xlink:href="../index.html" xlink:title="index.html">
<polygon fill="white" stroke="#b3b3b3" points="579,-90 517,-90 517,-54 579,-54 579,-90"/>
<text text-anchor="middle" x="548" y="-69.5" font-family="Helvetica,sans-Serif" font-size="10.00">index.html</text>
</a>
</g>
</g>
<!-- index.ori -->
<g id="node3" class="node">
<title>index.ori</title>
<g id="a_node3"><a xlink:href="../index.ori" xlink:title="index.ori">
<polygon fill="white" stroke="#b3b3b3" points="409,-90 355,-90 355,-54 409,-54 409,-90"/>
<text text-anchor="middle" x="382" y="-69.5" font-family="Helvetica,sans-Serif" font-size="10.00">index.ori</text>
</a>
</g>
</g>
<!-- index.ori&#45;&gt;index.html -->
<g id="edge3" class="edge">
<title>index.ori&#45;&gt;index.html</title>
<path fill="none" stroke="#999999" d="M409.35,-72C436.39,-72 478.73,-72 509.31,-72"/>
<polygon fill="#999999" stroke="#999999" points="516.82,-72 509.32,-75.38 513.07,-72 509.32,-72 509.32,-72 509.32,-72 513.07,-72 509.32,-68.63 516.82,-72 516.82,-72"/>
</g>
<!-- team -->
<g id="node5" class="node">
<title>team</title>
<g id="a_node5"><a xlink:href="../team" xlink:title="team">
<polygon fill="white" stroke="#b3b3b3" points="409,-225 355,-225 355,-189 409,-189 409,-225"/>
<text text-anchor="middle" x="382" y="-204.5" font-family="Helvetica,sans-Serif" font-size="10.00">team</text>
</a>
</g>
</g>
<!-- person.ori&#45;&gt;team -->
<g id="edge4" class="edge">
<title>person.ori&#45;&gt;team</title>
<path fill="none" stroke="#999999" d="M238.21,-229.48C268.18,-224.76 315.18,-217.36 346.99,-212.35"/>
<polygon fill="#999999" stroke="#999999" points="354.74,-211.13 347.85,-215.64 351.03,-211.72 347.33,-212.3 347.33,-212.3 347.33,-212.3 351.03,-211.72 346.8,-208.97 354.74,-211.13 354.74,-211.13"/>
</g>
<!-- team.yaml -->
<g id="node6" class="node">
<title>team.yaml</title>
<g id="a_node6"><a xlink:href="../team.yaml" xlink:title="team.yaml">
<polygon fill="white" stroke="#b3b3b3" points="62,-144 0,-144 0,-108 62,-108 62,-144"/>
<text text-anchor="middle" x="31" y="-123.5" font-family="Helvetica,sans-Serif" font-size="10.00">team.yaml</text>
</a>
</g>
</g>
<!-- teamByName -->
<g id="node7" class="node">
<title>teamByName</title>
<g id="a_node7"><a xlink:href="../teamByName" xlink:title="teamByName">
<polygon fill="white" stroke="#b3b3b3" points="247,-144 170,-144 170,-108 247,-108 247,-144"/>
<text text-anchor="middle" x="208.5" y="-123.5" font-family="Helvetica,sans-Serif" font-size="10.00">teamByName</text>
</a>
</g>
</g>
<!-- team.yaml&#45;&gt;teamByName -->
<g id="edge5" class="edge">
<title>team.yaml&#45;&gt;teamByName</title>
<path fill="none" stroke="#999999" d="M62.17,-126C89.64,-126 130.58,-126 162.01,-126"/>
<polygon fill="#999999" stroke="#999999" points="169.78,-126 162.28,-129.38 166.03,-126 162.28,-126 162.28,-126 162.28,-126 166.03,-126 162.28,-122.63 169.78,-126 169.78,-126"/>
</g>
<!-- teamByName&#45;&gt;index.ori -->
<g id="edge6" class="edge">
<title>teamByName&#45;&gt;index.ori</title>
<path fill="none" stroke="#999999" d="M247.14,-114.15C277.1,-104.72 318.64,-91.63 347.47,-82.56"/>
<polygon fill="#999999" stroke="#999999" points="354.88,-80.23 348.74,-85.7 351.3,-81.35 347.72,-82.48 347.72,-82.48 347.72,-82.48 351.3,-81.35 346.71,-79.26 354.88,-80.23 354.88,-80.23"/>
</g>
<!-- teamByName&#45;&gt;team -->
<g id="edge7" class="edge">
<title>teamByName&#45;&gt;team</title>
<path fill="none" stroke="#999999" d="M247.14,-143.78C277.22,-157.99 319,-177.71 347.84,-191.34"/>
<polygon fill="#999999" stroke="#999999" points="354.88,-194.66 346.65,-194.51 351.49,-193.06 348.09,-191.46 348.09,-191.46 348.09,-191.46 351.49,-193.06 349.54,-188.41 354.88,-194.66 354.88,-194.66"/>
</g>
<!-- thumbnail -->
<g id="node8" class="node">
<title>thumbnail</title>
<g id="a_node8"><a xlink:href="../thumbnail" xlink:title="thumbnail">
<polygon fill="white" stroke="#b3b3b3" points="60.5,-36 1.5,-36 1.5,0 60.5,0 60.5,-36"/>
<text text-anchor="middle" x="31" y="-15.5" font-family="Helvetica,sans-Serif" font-size="10.00">thumbnail</text>
</a>
</g>
</g>
<!-- thumbnail&#45;&gt;thumbnails -->
<g id="edge8" class="edge">
<title>thumbnail&#45;&gt;thumbnails</title>
<path fill="none" stroke="#999999" d="M60.59,-18C89.99,-18 135.98,-18 168.67,-18"/>
<polygon fill="#999999" stroke="#999999" points="176.26,-18 168.76,-21.38 172.51,-18 168.76,-18 168.76,-18 168.76,-18 172.51,-18 168.76,-14.63 176.26,-18 176.26,-18"/>
</g>
<!-- thumbnails&#45;&gt;index.ori -->
<g id="edge9" class="edge">
<title>thumbnails&#45;&gt;index.ori</title>
<path fill="none" stroke="#999999" d="M240.56,-27.78C270.85,-37.32 316.78,-51.78 347.79,-61.54"/>
<polygon fill="#999999" stroke="#999999" points="354.94,-63.79 346.77,-64.76 351.36,-62.67 347.79,-61.54 347.79,-61.54 347.79,-61.54 351.36,-62.67 348.8,-58.32 354.94,-63.79 354.94,-63.79"/>
</g>
</g>
</svg>
