<?xml version="1.0" encoding="UTF-8" standalone="no"?>
<!DOCTYPE svg PUBLIC "-//W3C//DTD SVG 1.1//EN"
 "http://www.w3.org/Graphics/SVG/1.1/DTD/svg11.dtd">
<!-- Generated by graphviz version 2.44.0 (20200518.1210)
 -->
<!-- Title: g Pages: 1 -->
<svg width="191pt" height="530pt"
 viewBox="0.00 0.00 191.49 530.00" xmlns="http://www.w3.org/2000/svg" xmlns:xlink="http://www.w3.org/1999/xlink">
<g id="graph0" class="graph" transform="scale(1 1) rotate(0) translate(4 526)">
<title>g</title>
<polygon fill="white" stroke="transparent" points="-4,4 -4,-526 187.49,-526 187.49,4 -4,4"/>
<g id="node1" class="node">
<title></title>
<ellipse fill="none" stroke="#666666" cx="3.5" cy="-261" rx="3.5" ry="3.5"/>
</g>
<!-- /Alice -->
<g id="node2" class="node">
<title>/Alice</title>
<polygon fill="none" stroke="#b3b3b3" points="171.37,-522 117.37,-522 117.37,-486 171.37,-486 171.37,-522"/>
<text text-anchor="middle" x="144.37" y="-499.8" font-family="Helvetica,sans-Serif" font-size="14.00">Alice</text>
</g>
<!-- &#45;&gt;/Alice -->
<g id="edge1" class="edge">
<title>&#45;&gt;/Alice</title>
<path fill="none" stroke="#999999" d="M4.37,-264.48C3.52,-288.51 -0.35,-429.72 25,-462 45.1,-487.6 82.01,-497.62 109.28,-501.53"/>
<polygon fill="#999999" stroke="#999999" points="117.05,-502.52 109.19,-504.92 113.33,-502.05 109.61,-501.58 109.61,-501.58 109.61,-501.58 113.33,-502.05 110.04,-498.23 117.05,-502.52 117.05,-502.52"/>
<text text-anchor="middle" x="56.12" y="-500.2" font-family="Helvetica,sans-Serif" font-size="14.00">Alice</text>
</g>
<!-- /Imani -->
<g id="node3" class="node">
<title>/Imani</title>
<polygon fill="none" stroke="#b3b3b3" points="171.37,-468 117.37,-468 117.37,-432 171.37,-432 171.37,-468"/>
<text text-anchor="middle" x="144.37" y="-445.8" font-family="Helvetica,sans-Serif" font-size="14.00">Imani</text>
</g>
<!-- &#45;&gt;/Imani -->
<g id="edge2" class="edge">
<title>&#45;&gt;/Imani</title>
<path fill="none" stroke="#999999" d="M4.52,-264.48C4.73,-284.33 6.67,-383.22 25,-406 45.52,-431.49 82.35,-442.22 109.5,-446.73"/>
<polygon fill="#999999" stroke="#999999" points="117.23,-447.89 109.31,-450.11 113.52,-447.33 109.81,-446.77 109.81,-446.77 109.81,-446.77 113.52,-447.33 110.32,-443.44 117.23,-447.89 117.23,-447.89"/>
<text text-anchor="middle" x="56.12" y="-445.2" font-family="Helvetica,sans-Serif" font-size="14.00">Imani</text>
</g>
<!-- /Ines -->
<g id="node4" class="node">
<title>/Ines</title>
<polygon fill="none" stroke="#b3b3b3" points="171.37,-414 117.37,-414 117.37,-378 171.37,-378 171.37,-414"/>
<text text-anchor="middle" x="144.37" y="-391.8" font-family="Helvetica,sans-Serif" font-size="14.00">Ines</text>
</g>
<!-- &#45;&gt;/Ines -->
<g id="edge3" class="edge">
<title>&#45;&gt;/Ines</title>
<path fill="none" stroke="#999999" d="M4.25,-264.53C3.51,-277.49 2.69,-323.09 25,-349 46.4,-373.86 82.75,-385.69 109.54,-391.24"/>
<polygon fill="#999999" stroke="#999999" points="117.17,-392.71 109.16,-394.61 113.48,-392 109.8,-391.29 109.8,-391.29 109.8,-391.29 113.48,-392 110.44,-387.98 117.17,-392.71 117.17,-392.71"/>
<text text-anchor="middle" x="56.12" y="-389.2" font-family="Helvetica,sans-Serif" font-size="14.00">Ines</text>
</g>
<!-- /Jenny -->
<g id="node5" class="node">
<title>/Jenny</title>
<polygon fill="none" stroke="#b3b3b3" points="171.37,-360 117.37,-360 117.37,-324 171.37,-324 171.37,-360"/>
<text text-anchor="middle" x="144.37" y="-337.8" font-family="Helvetica,sans-Serif" font-size="14.00">Jenny</text>
</g>
<!-- &#45;&gt;/Jenny -->
<g id="edge4" class="edge">
<title>&#45;&gt;/Jenny</title>
<path fill="none" stroke="#999999" d="M5.45,-264.07C7.71,-270.93 14.07,-287.64 25,-297 49.21,-317.74 83.97,-329.42 109.56,-335.65"/>
<polygon fill="#999999" stroke="#999999" points="117.19,-337.41 109.12,-339.01 113.53,-336.57 109.88,-335.73 109.88,-335.73 109.88,-335.73 113.53,-336.57 110.64,-332.44 117.19,-337.41 117.19,-337.41"/>
<text text-anchor="middle" x="56.12" y="-332.2" font-family="Helvetica,sans-Serif" font-size="14.00">Jenny</text>
</g>
<!-- /Luis -->
<g id="node6" class="node">
<title>/Luis</title>
<polygon fill="none" stroke="#b3b3b3" points="171.37,-306 117.37,-306 117.37,-270 171.37,-270 171.37,-306"/>
<text text-anchor="middle" x="144.37" y="-283.8" font-family="Helvetica,sans-Serif" font-size="14.00">Luis</text>
</g>
<!-- &#45;&gt;/Luis -->
<g id="edge5" class="edge">
<title>&#45;&gt;/Luis</title>
<path fill="none" stroke="#999999" d="M7.4,-261.56C20.38,-264.09 74.08,-274.53 109.98,-281.51"/>
<polygon fill="#999999" stroke="#999999" points="117.35,-282.94 109.35,-284.82 113.67,-282.23 109.99,-281.51 109.99,-281.51 109.99,-281.51 113.67,-282.23 110.64,-278.2 117.35,-282.94 117.35,-282.94"/>
<text text-anchor="middle" x="56.12" y="-280.2" font-family="Helvetica,sans-Serif" font-size="14.00">Luis</text>
</g>
<!-- /Maria -->
<g id="node7" class="node">
<title>/Maria</title>
<polygon fill="none" stroke="#b3b3b3" points="171.37,-252 117.37,-252 117.37,-216 171.37,-216 171.37,-252"/>
<text text-anchor="middle" x="144.37" y="-229.8" font-family="Helvetica,sans-Serif" font-size="14.00">Maria</text>
</g>
<!-- &#45;&gt;/Maria -->
<g id="edge6" class="edge">
<title>&#45;&gt;/Maria</title>
<path fill="none" stroke="#999999" d="M6.37,-258.76C9.69,-254.99 16.99,-247.46 25,-244.2 51.9,-233.26 85,-231.27 109.36,-231.69"/>
<polygon fill="#999999" stroke="#999999" points="116.94,-231.9 109.35,-235.07 113.19,-231.8 109.44,-231.69 109.44,-231.69 109.44,-231.69 113.19,-231.8 109.54,-228.32 116.94,-231.9 116.94,-231.9"/>
<text text-anchor="middle" x="56.12" y="-248.2" font-family="Helvetica,sans-Serif" font-size="14.00">Maria</text>
</g>
<!-- /Rakesh -->
<g id="node8" class="node">
<title>/Rakesh</title>
<polygon fill="none" stroke="#b3b3b3" points="176.33,-198 112.41,-198 112.41,-162 176.33,-162 176.33,-198"/>
<text text-anchor="middle" x="144.37" y="-175.8" font-family="Helvetica,sans-Serif" font-size="14.00">Rakesh</text>
</g>
<!-- &#45;&gt;/Rakesh -->
<g id="edge7" class="edge">
<title>&#45;&gt;/Rakesh</title>
<path fill="none" stroke="#999999" d="M4.85,-257.76C5.98,-248.88 10.37,-224.01 25,-211.2 46.96,-191.98 79.41,-184.4 104.78,-181.51"/>
<polygon fill="#999999" stroke="#999999" points="112.41,-180.75 105.28,-184.85 108.68,-181.12 104.95,-181.49 104.95,-181.49 104.95,-181.49 108.68,-181.12 104.62,-178.13 112.41,-180.75 112.41,-180.75"/>
<text text-anchor="middle" x="56.12" y="-215.2" font-family="Helvetica,sans-Serif" font-size="14.00">Rakesh</text>
</g>
<!-- /Sebastian -->
<g id="node9" class="node">
<title>/Sebastian</title>
<polygon fill="none" stroke="#b3b3b3" points="183.62,-144 105.12,-144 105.12,-108 183.62,-108 183.62,-144"/>
<text text-anchor="middle" x="144.37" y="-121.8" font-family="Helvetica,sans-Serif" font-size="14.00">Sebastian</text>
</g>
<!-- &#45;&gt;/Sebastian -->
<g id="edge8" class="edge">
<title>&#45;&gt;/Sebastian</title>
<path fill="none" stroke="#999999" d="M4.77,-257.47C6.04,-241.68 11.95,-177.59 25,-163.2 43.42,-142.88 72.8,-133.57 97.68,-129.35"/>
<polygon fill="#999999" stroke="#999999" points="105.24,-128.19 98.34,-132.66 101.53,-128.76 97.83,-129.32 97.83,-129.32 97.83,-129.32 101.53,-128.76 97.32,-125.99 105.24,-128.19 105.24,-128.19"/>
<text text-anchor="middle" x="56.12" y="-167.2" font-family="Helvetica,sans-Serif" font-size="14.00">Sebastian</text>
</g>
<!-- /Seo&#45;jun -->
<g id="node10" class="node">
<title>/Seo&#45;jun</title>
<polygon fill="none" stroke="#b3b3b3" points="176.6,-90 112.14,-90 112.14,-54 176.6,-54 176.6,-90"/>
<text text-anchor="middle" x="144.37" y="-67.8" font-family="Helvetica,sans-Serif" font-size="14.00">Seo&#45;jun</text>
</g>
<!-- &#45;&gt;/Seo&#45;jun -->
<g id="edge9" class="edge">
<title>&#45;&gt;/Seo&#45;jun</title>
<path fill="none" stroke="#999999" d="M4.49,-257.64C4.48,-237.56 5.41,-133.6 25,-110.2 44.43,-86.99 78.06,-77.74 104.53,-74.13"/>
<polygon fill="#999999" stroke="#999999" points="112.14,-73.22 105.09,-77.46 108.41,-73.66 104.69,-74.11 104.69,-74.11 104.69,-74.11 108.41,-73.66 104.29,-70.76 112.14,-73.22 112.14,-73.22"/>
<text text-anchor="middle" x="56.12" y="-114.2" font-family="Helvetica,sans-Serif" font-size="14.00">Seo&#45;jun</text>
</g>
<!-- /Tomas -->
<g id="node11" class="node">
<title>/Tomas</title>
<polygon fill="none" stroke="#b3b3b3" points="173.65,-36 115.09,-36 115.09,0 173.65,0 173.65,-36"/>
<text text-anchor="middle" x="144.37" y="-13.8" font-family="Helvetica,sans-Serif" font-size="14.00">Tomas</text>
</g>
<!-- &#45;&gt;/Tomas -->
<g id="edge10" class="edge">
<title>&#45;&gt;/Tomas</title>
<path fill="none" stroke="#999999" d="M4.62,-257.42C5.56,-231.46 11.81,-72.53 25,-56.2 44.75,-31.73 80.34,-22.74 107.35,-19.53"/>
<polygon fill="#999999" stroke="#999999" points="115.07,-18.75 107.96,-22.87 111.34,-19.13 107.61,-19.51 107.61,-19.51 107.61,-19.51 111.34,-19.13 107.27,-16.15 115.07,-18.75 115.07,-18.75"/>
<text text-anchor="middle" x="56.12" y="-61.2" font-family="Helvetica,sans-Serif" font-size="14.00">Tomas</text>
</g>
</g>
</svg>
