<?xml version="1.0" encoding="UTF-8"?><svg xmlns="http://www.w3.org/2000/svg" viewBox="0 0 1204.02 225.9"><defs><style>.cls-1{letter-spacing:0em;}.cls-2{letter-spacing:.02em;}.cls-3{fill:#999;}.cls-4{fill:#333;}.cls-4,.cls-5{font-family:MyriadPro-Regular, 'Myriad Pro';font-size:30px;}.cls-6{stroke:#333;}.cls-6,.cls-7,.cls-8{fill:none;stroke-width:2px;}.cls-7,.cls-8{stroke:#999;}.cls-8{stroke-dasharray:0 0 4 4;}.cls-9{letter-spacing:.01em;}</style></defs><g id="Layer_1"><path d="M49.26,188.2H115.87c-1.76-10.78-2.21-19.26,.62-29.54,6.26-.21,20.27,3.29,29.02,1.54,1.75-5.25,3.5-12.25,3.5-17.5v-3.5l3.5-1.75c.44-7,.22-8.02,0-14,1.75,0,7,0,8.75-1.75-1.75-7-8.53-17.06-14-24.5,5.47-41.56-19.25-59.5-59.5-59.5-31.5,0-52.5,24.5-52.5,50.75s12.25,38.5,24.28,50.97c-.32,19.38-3.69,32.98-10.28,48.78h0Z"/><path d="M1154.76,188.2c-6.59-15.8-9.96-29.4-10.28-48.78,12.03-12.47,24.28-24.72,24.28-50.97s-21-50.75-52.5-50.75c-40.25,0-64.97,17.94-59.5,59.5-5.47,7.44-12.25,17.5-14,24.5,1.75,1.75,7,1.75,8.75,1.75-.22,5.98-.44,7,0,14l3.5,1.75v3.5c0,5.25,1.75,12.25,3.5,17.5,8.75,1.75,22.75-1.75,29.02-1.54,2.83,10.29,2.38,18.77,.62,29.54h66.62s0,0,0,0Z"/></g><g id="Artifact"><g><text class="cls-5" transform="translate(555.64 123.61)"><tspan class="cls-1" x="0" y="0">A</tspan><tspan class="cls-2" x="18.27" y="0">r</tspan><tspan x="28.8" y="0">tifa</tspan><tspan class="cls-9" x="68.97" y="0">c</tspan><tspan x="82.8" y="0">t</tspan></text><text class="cls-4" transform="translate(555.64 123.61)"><tspan class="cls-1" x="0" y="0">A</tspan><tspan class="cls-2" x="18.27" y="0">r</tspan><tspan x="28.8" y="0">tifa</tspan><tspan class="cls-9" x="68.97" y="0">c</tspan><tspan x="82.8" y="0">t</tspan></text><rect class="cls-6" x="485.38" y="88.5" width="233.27" height="52.61"/></g><g><line class="cls-7" x1="728.01" y1="117" x2="730.01" y2="117"/><line class="cls-8" x1="734.01" y1="117" x2="963.94" y2="117"/><line class="cls-7" x1="965.94" y1="117" x2="967.94" y2="117"/><path class="cls-3" d="M980.01,117c-5.68,2.11-12.73,5.7-17.09,9.51l3.44-9.51-3.44-9.51c4.37,3.81,11.42,7.4,17.09,9.51Z"/></g><g><line class="cls-7" x1="224.01" y1="117" x2="226.01" y2="117"/><line class="cls-8" x1="230.01" y1="117" x2="459.94" y2="117"/><line class="cls-7" x1="461.94" y1="117" x2="463.94" y2="117"/><path class="cls-3" d="M476.01,117c-5.68,2.11-12.73,5.7-17.09,9.51l3.44-9.51-3.44-9.51c4.37,3.81,11.42,7.4,17.09,9.51Z"/></g></g></svg>