<?xml version="1.0" encoding="UTF-8"?><svg id="Layer_2" xmlns="http://www.w3.org/2000/svg" viewBox="0 0 1133.5 150.5"><defs><style>.cls-1{letter-spacing:0em;}.cls-2{letter-spacing:.02em;}.cls-3{fill:#999;}.cls-4{fill:#333;}.cls-4,.cls-5{font-family:MyriadPro-Regular, 'Myriad Pro';font-size:30px;}.cls-6{stroke:#333;}.cls-6,.cls-7,.cls-8{fill:none;stroke-width:2px;}.cls-7,.cls-8{stroke:#999;}.cls-8{stroke-dasharray:0 0 4 4;}.cls-9{letter-spacing:.01em;}</style></defs><g id="Layer_1-2"><path d="M14,150.5H80.62c-1.76-10.78-2.21-19.26,.62-29.54,6.26-.21,20.27,3.29,29.02,1.54,1.75-5.25,3.5-12.25,3.5-17.5v-3.5l3.5-1.75c.44-7,.22-8.02,0-14,1.75,0,7,0,8.75-1.75-1.75-7-8.53-17.06-14-24.5C117.47,17.94,92.75,0,52.5,0,21,0,0,24.5,0,50.75s12.25,38.5,24.28,50.97c-.32,19.38-3.69,32.98-10.28,48.78h0Z"/><path d="M1119.5,150.5c-6.59-15.8-9.96-29.4-10.28-48.78,12.03-12.47,24.28-24.72,24.28-50.97S1112.5,0,1081,0c-40.25,0-64.97,17.94-59.5,59.5-5.47,7.44-12.25,17.5-14,24.5,1.75,1.75,7,1.75,8.75,1.75-.22,5.98-.44,7,0,14l3.5,1.75v3.5c0,5.25,1.75,12.25,3.5,17.5,8.75,1.75,22.75-1.75,29.02-1.54,2.83,10.29,2.38,18.77,.62,29.54h66.62s0,0,0,0Z"/></g><g id="Artifact"><g><text class="cls-5" transform="translate(520.39 85.91)"><tspan class="cls-1" x="0" y="0">A</tspan><tspan class="cls-2" x="18.27" y="0">r</tspan><tspan x="28.8" y="0">tifa</tspan><tspan class="cls-9" x="68.97" y="0">c</tspan><tspan x="82.8" y="0">t</tspan></text><text class="cls-4" transform="translate(520.39 85.91)"><tspan class="cls-1" x="0" y="0">A</tspan><tspan class="cls-2" x="18.27" y="0">r</tspan><tspan x="28.8" y="0">tifa</tspan><tspan class="cls-9" x="68.97" y="0">c</tspan><tspan x="82.8" y="0">t</tspan></text><rect class="cls-6" x="450.12" y="50.8" width="233.27" height="52.61"/></g><g><line class="cls-7" x1="692.75" y1="79.3" x2="694.75" y2="79.3"/><line class="cls-8" x1="698.75" y1="79.3" x2="928.68" y2="79.3"/><line class="cls-7" x1="930.68" y1="79.3" x2="932.68" y2="79.3"/><path class="cls-3" d="M944.75,79.3c-5.68,2.11-12.73,5.7-17.09,9.51l3.44-9.51-3.44-9.51c4.37,3.81,11.42,7.4,17.09,9.51Z"/></g><g><line class="cls-7" x1="188.75" y1="79.3" x2="190.75" y2="79.3"/><line class="cls-8" x1="194.75" y1="79.3" x2="424.68" y2="79.3"/><line class="cls-7" x1="426.68" y1="79.3" x2="428.68" y2="79.3"/><path class="cls-3" d="M440.75,79.3c-5.68,2.11-12.73,5.7-17.09,9.51l3.44-9.51-3.44-9.51c4.37,3.81,11.42,7.4,17.09,9.51Z"/></g></g></svg>