<?xml version="1.0" encoding="UTF-8"?><svg xmlns="http://www.w3.org/2000/svg" viewBox="0 0 1204.02 225.9"><defs><style>.cls-1{letter-spacing:0em;}.cls-2{fill:#999;}.cls-3{fill:gray;}.cls-3,.cls-4,.cls-5{font-family:MyriadPro-Regular, 'Myriad Pro';font-size:30px;}.cls-4{fill:#333;}.cls-6{stroke:#333;}.cls-6,.cls-7,.cls-8,.cls-9,.cls-10,.cls-11{fill:none;stroke-width:2px;}.cls-7,.cls-8,.cls-9,.cls-10,.cls-11{stroke:#999;}.cls-12{letter-spacing:.02em;}.cls-13{letter-spacing:0em;}.cls-14{letter-spacing:0em;}.cls-8{stroke-dasharray:0 0 4.1 4.1;}.cls-15{letter-spacing:0em;}.cls-9{stroke-dasharray:0 0 4.21 4.21;}.cls-16{letter-spacing:-.05em;}.cls-10{stroke-dasharray:0 0 3.74 3.74;}.cls-17{letter-spacing:0em;}.cls-18{letter-spacing:0em;}.cls-11{stroke-dasharray:0 0 3.95 3.95;}.cls-19{letter-spacing:-.01em;}</style></defs><g id="Layer_1"><path d="M49.26,188.2H115.87c-1.76-10.78-2.21-19.26,.62-29.54,6.26-.21,20.27,3.29,29.02,1.54,1.75-5.25,3.5-12.25,3.5-17.5v-3.5l3.5-1.75c.44-7,.22-8.02,0-14,1.75,0,7,0,8.75-1.75-1.75-7-8.53-17.06-14-24.5,5.47-41.56-19.25-59.5-59.5-59.5-31.5,0-52.5,24.5-52.5,50.75s12.25,38.5,24.28,50.97c-.32,19.38-3.69,32.98-10.28,48.78h0Z"/><path d="M1154.76,188.2c-6.59-15.8-9.96-29.4-10.28-48.78,12.03-12.47,24.28-24.72,24.28-50.97s-21-50.75-52.5-50.75c-40.25,0-64.97,17.94-59.5,59.5-5.47,7.44-12.25,17.5-14,24.5,1.75,1.75,7,1.75,8.75,1.75-.22,5.98-.44,7,0,14l3.5,1.75v3.5c0,5.25,1.75,12.25,3.5,17.5,8.75,1.75,22.75-1.75,29.02-1.54,2.83,10.29,2.38,18.77,.62,29.54h66.62s0,0,0,0Z"/></g><g id="Transformation"><g><text class="cls-5" transform="translate(298.25 123.6)"><tspan class="cls-14" x="0" y="0">S</tspan><tspan x="14.97" y="0">ou</tspan><tspan class="cls-17" x="47.97" y="0">r</tspan><tspan class="cls-13" x="57.48" y="0">c</tspan><tspan x="70.74" y="0">e</tspan></text><text class="cls-4" transform="translate(298.25 123.6)"><tspan class="cls-14" x="0" y="0">S</tspan><tspan x="14.97" y="0">ou</tspan><tspan class="cls-17" x="47.97" y="0">r</tspan><tspan class="cls-13" x="57.48" y="0">c</tspan><tspan x="70.74" y="0">e</tspan></text><rect class="cls-6" x="275.58" y="88.49" width="131.1" height="52.61"/></g><g><text class="cls-5" transform="translate(806.53 123.6)"><tspan class="cls-1" x="0" y="0">R</tspan><tspan x="16.26" y="0">esult</tspan></text><text class="cls-3" transform="translate(806.53 123.6)"><tspan class="cls-1" x="0" y="0">R</tspan><tspan x="16.26" y="0">esult</tspan></text><g><polyline class="cls-7" points="779.33 139.1 779.33 141.1 781.33 141.1"/><line class="cls-8" x1="785.43" y1="141.1" x2="906.39" y2="141.1"/><polyline class="cls-7" points="908.44 141.1 910.44 141.1 910.44 139.1"/><line class="cls-10" x1="910.44" y1="135.36" x2="910.44" y2="92.36"/><polyline class="cls-7" points="910.44 90.49 910.44 88.49 908.44 88.49"/><line class="cls-8" x1="904.34" y1="88.49" x2="783.38" y2="88.49"/><polyline class="cls-7" points="781.33 88.49 779.33 88.49 779.33 90.49"/><line class="cls-10" x1="779.33" y1="94.23" x2="779.33" y2="137.23"/></g></g><g><text class="cls-5" transform="translate(497.5 123.6)"><tspan class="cls-16" x="0" y="0">T</tspan><tspan class="cls-18" x="13.56" y="0">r</tspan><tspan x="23.22" y="0">ans</tspan><tspan class="cls-19" x="66.21" y="0">f</tspan><tspan x="74.58" y="0">o</tspan><tspan class="cls-1" x="91.05" y="0">r</tspan><tspan x="100.98" y="0">m</tspan><tspan class="cls-15" x="126" y="0">a</tspan><tspan x="140.34" y="0">t</tspan><tspan class="cls-12" x="150.27" y="0">i</tspan><tspan x="157.89" y="0">on</tspan></text><text class="cls-4" transform="translate(497.5 123.6)"><tspan class="cls-16" x="0" y="0">T</tspan><tspan class="cls-18" x="13.56" y="0">r</tspan><tspan x="23.22" y="0">ans</tspan><tspan class="cls-19" x="66.21" y="0">f</tspan><tspan x="74.58" y="0">o</tspan><tspan class="cls-1" x="91.05" y="0">r</tspan><tspan x="100.98" y="0">m</tspan><tspan class="cls-15" x="126" y="0">a</tspan><tspan x="140.34" y="0">t</tspan><tspan class="cls-12" x="150.27" y="0">i</tspan><tspan x="157.89" y="0">on</tspan></text><rect class="cls-6" x="476.38" y="88.49" width="233.27" height="52.61"/></g><g><line class="cls-7" x1="413.01" y1="117" x2="415.01" y2="117"/><line class="cls-9" x1="419.22" y1="117" x2="450.83" y2="117"/><line class="cls-7" x1="452.94" y1="117" x2="454.94" y2="117"/><path class="cls-2" d="M467.01,117c-5.68,2.11-12.73,5.7-17.09,9.51l3.44-9.51-3.44-9.51c4.37,3.81,11.42,7.4,17.09,9.51Z"/></g><g><line class="cls-7" x1="719.01" y1="117" x2="721.01" y2="117"/><line class="cls-9" x1="725.22" y1="117" x2="756.83" y2="117"/><line class="cls-7" x1="758.94" y1="117" x2="760.94" y2="117"/><path class="cls-2" d="M773.01,117c-5.68,2.11-12.73,5.7-17.09,9.51l3.44-9.51-3.44-9.51c4.37,3.81,11.42,7.4,17.09,9.51Z"/></g><g><line class="cls-7" x1="170.01" y1="117" x2="172.01" y2="117"/><line class="cls-11" x1="175.96" y1="117" x2="252.96" y2="117"/><line class="cls-7" x1="254.94" y1="117" x2="256.94" y2="117"/><path class="cls-2" d="M269.01,117c-5.68,2.11-12.73,5.7-17.09,9.51l3.44-9.51-3.44-9.51c4.37,3.81,11.42,7.4,17.09,9.51Z"/></g><g><line class="cls-7" x1="917.01" y1="117" x2="919.01" y2="117"/><line class="cls-11" x1="922.96" y1="117" x2="999.96" y2="117"/><line class="cls-7" x1="1001.94" y1="117" x2="1003.94" y2="117"/><path class="cls-2" d="M1016.01,117c-5.68,2.11-12.73,5.7-17.09,9.51l3.44-9.51-3.44-9.51c4.37,3.81,11.42,7.4,17.09,9.51Z"/></g></g></svg>