<?xml version="1.0" encoding="UTF-8"?><svg id="Layer_2" xmlns="http://www.w3.org/2000/svg" viewBox="0 0 1133.5 150.5"><defs><style>.cls-1{letter-spacing:0em;}.cls-2{fill:#999;}.cls-3{fill:gray;}.cls-3,.cls-4,.cls-5{font-family:MyriadPro-Regular, 'Myriad Pro';font-size:30px;}.cls-4{fill:#333;}.cls-6{stroke:#333;}.cls-6,.cls-7,.cls-8,.cls-9,.cls-10,.cls-11{fill:none;stroke-width:2px;}.cls-7,.cls-8,.cls-9,.cls-10,.cls-11{stroke:#999;}.cls-12{letter-spacing:.02em;}.cls-13{letter-spacing:0em;}.cls-14{letter-spacing:0em;}.cls-8{stroke-dasharray:0 0 4.1 4.1;}.cls-15{letter-spacing:0em;}.cls-9{stroke-dasharray:0 0 4.21 4.21;}.cls-16{letter-spacing:-.05em;}.cls-10{stroke-dasharray:0 0 3.74 3.74;}.cls-17{letter-spacing:0em;}.cls-18{letter-spacing:0em;}.cls-11{stroke-dasharray:0 0 3.95 3.95;}.cls-19{letter-spacing:-.01em;}</style></defs><g id="Layer_1-2"><path d="M14,150.5H80.62c-1.76-10.78-2.21-19.26,.62-29.54,6.26-.21,20.27,3.29,29.02,1.54,1.75-5.25,3.5-12.25,3.5-17.5v-3.5l3.5-1.75c.44-7,.22-8.02,0-14,1.75,0,7,0,8.75-1.75-1.75-7-8.53-17.06-14-24.5C117.47,17.94,92.75,0,52.5,0,21,0,0,24.5,0,50.75s12.25,38.5,24.28,50.97c-.32,19.38-3.69,32.98-10.28,48.78h0Z"/><path d="M1119.5,150.5c-6.59-15.8-9.96-29.4-10.28-48.78,12.03-12.47,24.28-24.72,24.28-50.97S1112.5,0,1081,0c-40.25,0-64.97,17.94-59.5,59.5-5.47,7.44-12.25,17.5-14,24.5,1.75,1.75,7,1.75,8.75,1.75-.22,5.98-.44,7,0,14l3.5,1.75v3.5c0,5.25,1.75,12.25,3.5,17.5,8.75,1.75,22.75-1.75,29.02-1.54,2.83,10.29,2.38,18.77,.62,29.54h66.62s0,0,0,0Z"/></g><g id="Transformation"><g><text class="cls-5" transform="translate(262.99 85.9)"><tspan class="cls-14" x="0" y="0">S</tspan><tspan x="14.97" y="0">ou</tspan><tspan class="cls-17" x="47.97" y="0">r</tspan><tspan class="cls-13" x="57.48" y="0">c</tspan><tspan x="70.74" y="0">e</tspan></text><text class="cls-4" transform="translate(262.99 85.9)"><tspan class="cls-14" x="0" y="0">S</tspan><tspan x="14.97" y="0">ou</tspan><tspan class="cls-17" x="47.97" y="0">r</tspan><tspan class="cls-13" x="57.48" y="0">c</tspan><tspan x="70.74" y="0">e</tspan></text><rect class="cls-6" x="240.32" y="50.79" width="131.1" height="52.61"/></g><g><text class="cls-5" transform="translate(771.27 85.9)"><tspan class="cls-1" x="0" y="0">R</tspan><tspan x="16.26" y="0">esult</tspan></text><text class="cls-3" transform="translate(771.27 85.9)"><tspan class="cls-1" x="0" y="0">R</tspan><tspan x="16.26" y="0">esult</tspan></text><g><polyline class="cls-7" points="744.08 101.4 744.08 103.4 746.08 103.4"/><line class="cls-8" x1="750.18" y1="103.4" x2="871.13" y2="103.4"/><polyline class="cls-7" points="873.18 103.4 875.18 103.4 875.18 101.4"/><line class="cls-10" x1="875.18" y1="97.66" x2="875.18" y2="54.66"/><polyline class="cls-7" points="875.18 52.79 875.18 50.79 873.18 50.79"/><line class="cls-8" x1="869.08" y1="50.79" x2="748.13" y2="50.79"/><polyline class="cls-7" points="746.08 50.79 744.08 50.79 744.08 52.79"/><line class="cls-10" x1="744.08" y1="56.53" x2="744.08" y2="99.53"/></g></g><g><text class="cls-5" transform="translate(462.25 85.9)"><tspan class="cls-16" x="0" y="0">T</tspan><tspan class="cls-18" x="13.56" y="0">r</tspan><tspan x="23.22" y="0">ans</tspan><tspan class="cls-19" x="66.21" y="0">f</tspan><tspan x="74.58" y="0">o</tspan><tspan class="cls-1" x="91.05" y="0">r</tspan><tspan x="100.98" y="0">m</tspan><tspan class="cls-15" x="126" y="0">a</tspan><tspan x="140.34" y="0">t</tspan><tspan class="cls-12" x="150.27" y="0">i</tspan><tspan x="157.89" y="0">on</tspan></text><text class="cls-4" transform="translate(462.25 85.9)"><tspan class="cls-16" x="0" y="0">T</tspan><tspan class="cls-18" x="13.56" y="0">r</tspan><tspan x="23.22" y="0">ans</tspan><tspan class="cls-19" x="66.21" y="0">f</tspan><tspan x="74.58" y="0">o</tspan><tspan class="cls-1" x="91.05" y="0">r</tspan><tspan x="100.98" y="0">m</tspan><tspan class="cls-15" x="126" y="0">a</tspan><tspan x="140.34" y="0">t</tspan><tspan class="cls-12" x="150.27" y="0">i</tspan><tspan x="157.89" y="0">on</tspan></text><rect class="cls-6" x="441.12" y="50.79" width="233.27" height="52.61"/></g><g><line class="cls-7" x1="377.75" y1="79.3" x2="379.75" y2="79.3"/><line class="cls-9" x1="383.97" y1="79.3" x2="415.57" y2="79.3"/><line class="cls-7" x1="417.68" y1="79.3" x2="419.68" y2="79.3"/><path class="cls-2" d="M431.75,79.3c-5.68,2.11-12.73,5.7-17.09,9.51l3.44-9.51-3.44-9.51c4.37,3.81,11.42,7.4,17.09,9.51Z"/></g><g><line class="cls-7" x1="683.75" y1="79.3" x2="685.75" y2="79.3"/><line class="cls-9" x1="689.97" y1="79.3" x2="721.57" y2="79.3"/><line class="cls-7" x1="723.68" y1="79.3" x2="725.68" y2="79.3"/><path class="cls-2" d="M737.75,79.3c-5.68,2.11-12.73,5.7-17.09,9.51l3.44-9.51-3.44-9.51c4.37,3.81,11.42,7.4,17.09,9.51Z"/></g><g><line class="cls-7" x1="134.75" y1="79.3" x2="136.75" y2="79.3"/><line class="cls-11" x1="140.7" y1="79.3" x2="217.71" y2="79.3"/><line class="cls-7" x1="219.68" y1="79.3" x2="221.68" y2="79.3"/><path class="cls-2" d="M233.75,79.3c-5.68,2.11-12.73,5.7-17.09,9.51l3.44-9.51-3.44-9.51c4.37,3.81,11.42,7.4,17.09,9.51Z"/></g><g><line class="cls-7" x1="881.75" y1="79.3" x2="883.75" y2="79.3"/><line class="cls-11" x1="887.7" y1="79.3" x2="964.71" y2="79.3"/><line class="cls-7" x1="966.68" y1="79.3" x2="968.68" y2="79.3"/><path class="cls-2" d="M980.75,79.3c-5.68,2.11-12.73,5.7-17.09,9.51l3.44-9.51-3.44-9.51c4.37,3.81,11.42,7.4,17.09,9.51Z"/></g></g></svg>