<?xml version="1.0" encoding="UTF-8" standalone="no"?>
<!DOCTYPE svg PUBLIC "-//W3C//DTD SVG 1.1//EN"
 "http://www.w3.org/Graphics/SVG/1.1/DTD/svg11.dtd">
<!-- Generated by graphviz version 2.44.0 (20200518.1210)
 -->
<!-- Title: g Pages: 1 -->
<svg width="185pt" height="260pt"
 viewBox="0.00 0.00 184.78 260.00" xmlns="http://www.w3.org/2000/svg" xmlns:xlink="http://www.w3.org/1999/xlink">
<g id="graph0" class="graph" transform="scale(1 1) rotate(0) translate(4 256)">
<title>g</title>
<g id="node1" class="node">
<title></title>
<ellipse fill="white" stroke="#666666" cx="3.5" cy="-126" rx="3.5" ry="3.5"/>
</g>
<!-- /0 -->
<g id="node2" class="node">
<title>/0</title>
<polygon fill="white" stroke="#b3b3b3" points="176.78,-252 122.78,-252 122.78,-216 176.78,-216 176.78,-252"/>
<text text-anchor="middle" x="149.78" y="-231" font-family="Helvetica,sans-Serif" font-size="10.00">Alice</text>
</g>
<!-- &#45;&gt;/0 -->
<g id="edge1" class="edge">
<title>&#45;&gt;/0</title>
<path fill="none" stroke="#999999" d="M7,-127.87C20.02,-137.62 80.8,-183.11 118.43,-211.28"/>
<polygon fill="#999999" stroke="#999999" points="124.71,-215.98 116.69,-214.19 121.71,-213.74 118.71,-211.49 118.71,-211.49 118.71,-211.49 121.71,-213.74 120.73,-208.79 124.71,-215.98 124.71,-215.98"/>
<text text-anchor="middle" x="64.89" y="-177.2" font-family="Helvetica,sans-Serif" font-size="14.00">0</text>
</g>
<!-- /1 -->
<g id="node3" class="node">
<title>/1</title>
<polygon fill="white" stroke="#b3b3b3" points="176.78,-144 122.78,-144 122.78,-108 176.78,-108 176.78,-144"/>
<text text-anchor="middle" x="149.78" y="-123" font-family="Helvetica,sans-Serif" font-size="10.00">Bob</text>
</g>
<!-- &#45;&gt;/1 -->
<g id="edge2" class="edge">
<title>&#45;&gt;/1</title>
<path fill="none" stroke="#999999" d="M7,-126C19.62,-126 77.06,-126 114.84,-126"/>
<polygon fill="#999999" stroke="#999999" points="122.59,-126 115.09,-129.38 118.84,-126 115.09,-126 115.09,-126 115.09,-126 118.84,-126 115.09,-122.63 122.59,-126 122.59,-126"/>
<text text-anchor="middle" x="64.89" y="-130.2" font-family="Helvetica,sans-Serif" font-size="14.00">1</text>
</g>
<!-- /2 -->
<g id="node4" class="node">
<title>/2</title>
<polygon fill="white" stroke="#b3b3b3" points="176.78,-36 122.78,-36 122.78,0 176.78,0 176.78,-36"/>
<text text-anchor="middle" x="149.78" y="-15" font-family="Helvetica,sans-Serif" font-size="10.00">Carol</text>
</g>
<!-- &#45;&gt;/2 -->
<g id="edge3" class="edge">
<title>&#45;&gt;/2</title>
<path fill="none" stroke="#999999" d="M7,-124.13C20.02,-114.38 80.8,-68.89 118.43,-40.72"/>
<polygon fill="#999999" stroke="#999999" points="124.71,-36.02 120.73,-43.21 121.71,-38.26 118.71,-40.51 118.71,-40.51 118.71,-40.51 121.71,-38.26 116.69,-37.81 124.71,-36.02 124.71,-36.02"/>
<text text-anchor="middle" x="64.89" y="-86.2" font-family="Helvetica,sans-Serif" font-size="14.00">2</text>
</g>
</g>
</svg>
