<?xml version="1.0" encoding="UTF-8" standalone="no"?>
<!DOCTYPE svg PUBLIC "-//W3C//DTD SVG 1.1//EN"
 "http://www.w3.org/Graphics/SVG/1.1/DTD/svg11.dtd">
<!-- Generated by graphviz version 2.44.0 (20200518.1210)
 -->
<!-- Title: g Pages: 1 -->
<svg width="207pt" height="260pt"
 viewBox="0.00 0.00 207.35 260.00" xmlns="http://www.w3.org/2000/svg" xmlns:xlink="http://www.w3.org/1999/xlink">
<g id="graph0" class="graph" transform="scale(1 1) rotate(0) translate(4 256)">
<title>g</title>
<g id="node1" class="node">
<title></title>
<ellipse fill="white" stroke="#666666" cx="3.5" cy="-126" rx="3.5" ry="3.5"/>
</g>
<!-- /Jade -->
<g id="node2" class="node">
<title>/Jade</title>
<polygon fill="white" stroke="#b3b3b3" points="199.35,-252 145.35,-252 145.35,-216 199.35,-216 199.35,-252"/>
<text text-anchor="middle" x="172.35" y="-231" font-family="Helvetica,sans-Serif" font-size="10.00">Jade</text>
</g>
<!-- &#45;&gt;/Jade -->
<g id="edge1" class="edge">
<title>&#45;&gt;/Jade</title>
<path fill="none" stroke="#999999" d="M6.86,-127.53C20.95,-136.65 94.87,-184.49 138.67,-212.85"/>
<polygon fill="#999999" stroke="#999999" points="145.17,-217.05 137.04,-215.81 142.02,-215.02 138.87,-212.98 138.87,-212.98 138.87,-212.98 142.02,-215.02 140.71,-210.15 145.17,-217.05 145.17,-217.05"/>
<text text-anchor="middle" x="76.17" y="-184.2" font-family="Helvetica,sans-Serif" font-size="14.00">Jade</text>
</g>
<!-- /Lee -->
<g id="node3" class="node">
<title>/Lee</title>
<polygon fill="white" stroke="#b3b3b3" points="199.35,-144 145.35,-144 145.35,-108 199.35,-108 199.35,-144"/>
<text text-anchor="middle" x="172.35" y="-123" font-family="Helvetica,sans-Serif" font-size="10.00">Lee</text>
</g>
<!-- &#45;&gt;/Lee -->
<g id="edge2" class="edge">
<title>&#45;&gt;/Lee</title>
<path fill="none" stroke="#999999" d="M7.12,-126C21.71,-126 93.81,-126 137.49,-126"/>
<polygon fill="#999999" stroke="#999999" points="145.03,-126 137.53,-129.38 141.28,-126 137.53,-126 137.53,-126 137.53,-126 141.28,-126 137.53,-122.63 145.03,-126 145.03,-126"/>
<text text-anchor="middle" x="76.17" y="-130.2" font-family="Helvetica,sans-Serif" font-size="14.00">Lee</text>
</g>
<!-- /Jan -->
<g id="node4" class="node">
<title>/Jan</title>
<polygon fill="white" stroke="#b3b3b3" points="199.35,-36 145.35,-36 145.35,0 199.35,0 199.35,-36"/>
<text text-anchor="middle" x="172.35" y="-15" font-family="Helvetica,sans-Serif" font-size="10.00">Jan</text>
</g>
<!-- &#45;&gt;/Jan -->
<g id="edge3" class="edge">
<title>&#45;&gt;/Jan</title>
<path fill="none" stroke="#999999" d="M6.86,-124.47C20.95,-115.35 94.87,-67.51 138.67,-39.15"/>
<polygon fill="#999999" stroke="#999999" points="145.17,-34.95 140.71,-41.85 142.02,-36.98 138.87,-39.02 138.87,-39.02 138.87,-39.02 142.02,-36.98 137.04,-36.19 145.17,-34.95 145.17,-34.95"/>
<text text-anchor="middle" x="76.17" y="-92.2" font-family="Helvetica,sans-Serif" font-size="14.00">Jan</text>
</g>
</g>
</svg>
