<?xml version="1.0" encoding="UTF-8" standalone="no"?>
<!DOCTYPE svg PUBLIC "-//W3C//DTD SVG 1.1//EN"
 "http://www.w3.org/Graphics/SVG/1.1/DTD/svg11.dtd">
<!-- Generated by graphviz version 2.44.0 (20200518.1210)
 -->
<!-- Title: g Pages: 1 -->
<svg width="349pt" height="260pt"
 viewBox="0.00 0.00 348.89 260.00" xmlns="http://www.w3.org/2000/svg" xmlns:xlink="http://www.w3.org/1999/xlink">
<g id="graph0" class="graph" transform="scale(1 1) rotate(0) translate(4 256)">
<title>g</title>
<g id="node1" class="node">
<title></title>
<ellipse fill="white" stroke="#666666" cx="3.5" cy="-126" rx="3.5" ry="3.5"/>
</g>
<!-- /Jade -->
<g id="node2" class="node">
<title>/Jade</title>
<polygon fill="white" stroke="#b3b3b3" points="340.66,-252 145.58,-252 145.58,-216 340.66,-216 340.66,-252"/>
<text text-anchor="middle" x="243.12" y="-231" font-family="Helvetica,sans-Serif" font-size="10.00">…&lt;title&gt;Jade&lt;/title&gt; &lt;/head&gt; &lt;body&gt; …</text>
</g>
<!-- &#45;&gt;/Jade -->
<g id="edge1" class="edge">
<title>&#45;&gt;/Jade</title>
<path fill="none" stroke="#999999" d="M7.03,-127.58C14.88,-132.43 39.55,-147.47 61,-158 102.76,-178.5 151.44,-198.73 187.81,-213.16"/>
<polygon fill="#999999" stroke="#999999" points="194.91,-215.96 186.69,-216.35 191.42,-214.59 187.93,-213.21 187.93,-213.21 187.93,-213.21 191.42,-214.59 189.17,-210.07 194.91,-215.96 194.91,-215.96"/>
<text text-anchor="middle" x="76.17" y="-175.2" font-family="Helvetica,sans-Serif" font-size="14.00">Jade</text>
</g>
<!-- /Lee -->
<g id="node3" class="node">
<title>/Lee</title>
<polygon fill="white" stroke="#b3b3b3" points="338.16,-144 148.08,-144 148.08,-108 338.16,-108 338.16,-144"/>
<text text-anchor="middle" x="243.12" y="-123" font-family="Helvetica,sans-Serif" font-size="10.00">…&lt;title&gt;Lee&lt;/title&gt; &lt;/head&gt; &lt;body&gt; …</text>
</g>
<!-- &#45;&gt;/Lee -->
<g id="edge2" class="edge">
<title>&#45;&gt;/Lee</title>
<path fill="none" stroke="#999999" d="M7.17,-126C20.69,-126 83.19,-126 140.33,-126"/>
<polygon fill="#999999" stroke="#999999" points="147.99,-126 140.49,-129.38 144.24,-126 140.49,-126 140.49,-126 140.49,-126 144.24,-126 140.49,-122.63 147.99,-126 147.99,-126"/>
<text text-anchor="middle" x="76.17" y="-130.2" font-family="Helvetica,sans-Serif" font-size="14.00">Lee</text>
</g>
<!-- /Jan -->
<g id="node4" class="node">
<title>/Jan</title>
<polygon fill="white" stroke="#b3b3b3" points="338.1,-36 148.14,-36 148.14,0 338.1,0 338.1,-36"/>
<text text-anchor="middle" x="243.12" y="-15" font-family="Helvetica,sans-Serif" font-size="10.00">…&lt;title&gt;Jan&lt;/title&gt; &lt;/head&gt; &lt;body&gt; …</text>
</g>
<!-- &#45;&gt;/Jan -->
<g id="edge3" class="edge">
<title>&#45;&gt;/Jan</title>
<path fill="none" stroke="#999999" d="M7,-124.25C14.76,-118.85 39.2,-102.22 61,-91.2 100.87,-71.05 147.66,-52.25 183.69,-38.76"/>
<polygon fill="#999999" stroke="#999999" points="190.75,-36.13 184.9,-41.91 187.24,-37.44 183.72,-38.74 183.72,-38.74 183.72,-38.74 187.24,-37.44 182.55,-35.58 190.75,-36.13 190.75,-36.13"/>
<text text-anchor="middle" x="76.17" y="-96.2" font-family="Helvetica,sans-Serif" font-size="14.00">Jan</text>
</g>
</g>
</svg>
